<svg xmlns="http://www.w3.org/2000/svg" version="1.1" viewBox="-5.0 -10.0 110.0 110.0">
 <path d="m50 44.891c-2.6289 0-4.7656 2.1367-4.7656 4.7656 0 1.2812 0.51562 2.4922 1.4336 3.3867v4.6953c0 0.57422 0.46484 1.043 1.043 1.043h4.5781c0.57422 0 1.043-0.46484 1.043-1.043v-4.6953c0.91797-0.89453 1.4336-2.1016 1.4336-3.3867 0-2.6289-2.1367-4.7656-4.7656-4.7656zm1.6445 6.8633c-0.25 0.19531-0.39844 0.5-0.39844 0.82031v4.125h-2.4961v-4.125c0-0.32031-0.14844-0.62109-0.39844-0.82031-0.66016-0.51953-1.0352-1.2812-1.0352-2.0977 0-1.4805 1.2031-2.6836 2.6836-2.6836s2.6797 1.2031 2.6797 2.6836c0 0.81641-0.37891 1.582-1.0352 2.0977zm32.156 11.723-1.6289-1.625c-1.0195-1.0195-2.8008-1.0234-3.8203 0l-5.957 5.957-1.9492-1.9492c-1.0234-1.0195-2.8008-1.0195-3.8203 0l-1.6289 1.625c-0.51172 0.50781-0.79297 1.1875-0.79297 1.9102 0 0.72266 0.28125 1.4023 0.79297 1.9102l5.4883 5.4883c0.50781 0.51172 1.1875 0.79297 1.9102 0.79297 0.72266 0 1.4023-0.28125 1.9102-0.79297l9.4961-9.4922c1.0508-1.0547 1.0508-2.7695 0-3.8203zm-1.4727 2.3477-9.4961 9.4922c-0.23438 0.23438-0.64062 0.23438-0.875 0l-5.4883-5.4883c-0.11719-0.11719-0.17969-0.27344-0.17969-0.4375s0.066407-0.32031 0.17969-0.4375l1.6289-1.625c0.23047-0.23438 0.63672-0.23438 0.87109 0l2.6875 2.6836c0.40625 0.40625 1.0664 0.40625 1.4727 0l6.6953-6.6953c0.24219-0.24219 0.63281-0.23828 0.875 0l1.6289 1.625c0.24219 0.24219 0.24219 0.63281 0 0.875zm4.7227-28.863c0.57422 0.058593 0.98828 0.57031 0.92969 1.1445l-0.035157 0.35156c-0.03125 0.30469-0.0625 0.61328-0.097656 0.91406-0.0625 0.53125-0.51172 0.92188-1.0352 0.92188-0.039062 0-0.082031-0.003907-0.12109-0.007813-0.57031-0.066406-0.98047-0.58203-0.91406-1.1523 0.035156-0.29297 0.0625-0.58984 0.09375-0.88672l0.035156-0.35547c0.058594-0.57031 0.58203-0.97656 1.1445-0.92969zm-2.6562 18.977c1.1406-3.6172 2.0625-7.4453 2.7305-11.406 0.097656-0.56641-0.28516-1.1055-0.85547-1.1992-0.58203-0.089843-1.1055 0.28906-1.1992 0.85547-0.61328 3.6523-1.457 7.1836-2.4805 10.535-1.6875-0.98047-3.5664-1.6602-5.5664-1.9805 2.2734-7.3945 3.5273-15.738 3.7148-24.848 0.011719-0.57031-0.43359-1.0391-1.0039-1.0625-10.047-0.37891-16.148-5.0898-16.738-12.93-0.039063-0.54297-0.49219-0.96484-1.0391-0.96484h-23.953c-0.54688 0-1 0.42188-1.0391 0.96875-0.23047 3.3047-1.4062 6.0586-3.5039 8.1797-2.8945 2.9297-7.4805 4.6172-13.266 4.8789-0.5625 0.023437-1.0039 0.49219-0.99609 1.0547 0.36328 27.5 10.551 46.957 30.324 57.859 0.14844 0.074219 0.30469 0.10938 0.46484 0.10938 0.16797 0 0.33594-0.039062 0.49219-0.12109 3.8359-2.0508 7.3867-4.5664 10.605-7.4492 1.1445 1.5938 2.5508 2.9805 4.1797 4.0781-3.5234 3.1484-7.4492 5.918-11.73 8.207l-3.4297 1.8359-3.5977-1.7969-0.15234-0.085938c-21.441-11.82-32.508-32.684-32.895-62.008l-0.097657-7.2852 7.2773-0.32812c3.918-0.17578 6.9727-1.1797 8.5977-2.8281 0.59375-0.60156 1.4023-1.6562 1.5586-3.8555l0.48438-7.0039h37.355l0.52344 6.9609c0.3125 4.1328 3.6992 6.3516 10.074 6.5898l7.3906 0.27734-0.15234 7.3945c-0.027344 1.3086-0.082031 2.707-0.16797 4.2695-0.03125 0.57422 0.40625 1.0664 0.98047 1.0977 0.56641 0.019531 1.0664-0.41016 1.0977-0.98047 0.089844-1.5859 0.14453-3.0078 0.17188-4.3438l0.17187-8.418c0.011719-0.57031-0.43359-1.0391-1.0039-1.0625l-8.4141-0.31641c-7.7461-0.28906-7.9844-3.4688-8.0742-4.6641l-0.59766-7.9219c-0.039063-0.54297-0.49219-0.96484-1.0391-0.96484l-39.285-0.011719c-0.54688 0-1 0.42188-1.0391 0.96875l-0.55469 7.9727c-0.10156 1.4844-0.54297 2.1133-0.96094 2.5391-1.2383 1.2539-3.8672 2.0586-7.2109 2.2109l-8.2891 0.375c-0.5625 0.023438-1.0039 0.49219-0.99609 1.0547l0.10938 8.293c0.39844 30.129 11.828 51.598 33.973 63.805l4.3086 2.1641c0.14844 0.074219 0.30469 0.10938 0.46484 0.10938 0.16797 0 0.33594-0.039063 0.49219-0.12109l3.9062-2.0898c4.6367-2.4805 8.8867-5.5 12.664-8.9531 2.1797 1.0742 4.625 1.6953 7.2188 1.6953 9.0352 0 16.387-7.3516 16.387-16.383 0-5.2734-2.5117-9.957-6.3945-12.957zm-34.398 27.82c-18.473-10.41-28.121-28.832-28.695-54.77 5.8477-0.43359 10.551-2.3047 13.645-5.4375 2.2422-2.2734 3.5898-5.1406 4.0078-8.5312h22.07c1.0547 8.0508 7.5391 13.152 17.609 13.836-0.25391 8.6914-1.5117 16.641-3.7188 23.68-0.16797-0.003906-0.33594-0.027344-0.50781-0.027344-3.0547 0-5.9062 0.85547-8.3594 2.3164v-11.656c0-1.293-1.0508-2.3438-2.3438-2.3438h-3.4102v-5.8086c0-5.6719-4.6172-10.289-10.289-10.289s-10.289 4.6172-10.289 10.289v5.8086h-3.4102c-1.293 0-2.3438 1.0508-2.3438 2.3438v18.125c0 1.293 1.0508 2.3438 2.3438 2.3438h22.594c-0.5625 1.6523-0.88281 3.418-0.88281 5.2578 0 2.7969 0.70703 5.4336 1.9492 7.7422-3.0234 2.7461-6.3633 5.1484-9.9648 7.125zm9.7734-22.207h-23.469c-0.14453 0-0.26172-0.11719-0.26172-0.26172v-18.125c0-0.14453 0.11719-0.26172 0.26172-0.26172h27.398c0.14453 0 0.26172 0.11719 0.26172 0.26172v13.105c-1.7383 1.4414-3.1641 3.2422-4.1914 5.2773zm-1.5625-20.73h-2.8281v-5.8086c0-2.9648-2.4102-5.3789-5.3789-5.3789-2.9648 0-5.3789 2.4102-5.3789 5.3789v5.8086h-2.8281v-5.8086c0-4.5234 3.6797-8.207 8.207-8.207 4.5234 0 8.207 3.6797 8.207 8.207zm-11.5 0v-5.8086c0-1.8164 1.4766-3.293 3.293-3.293s3.293 1.4766 3.293 3.293v5.8086zm27.695 42.375c-7.8867 0-14.305-6.4141-14.305-14.301s6.418-14.301 14.305-14.301c7.8867 0 14.301 6.4141 14.301 14.301s-6.4141 14.301-14.301 14.301z"/>
</svg>